Love for All and Sharing is the first step to solving all the problems of humanity.

Website I want to share. 
               
   http://www.scenetime.com
 
 
  Credit to EVERYONE for sharing and seeding back
 especially to SCENETIME.COM where i get all my 
 downloads.


 support www.scenetime.com to grow faster.

                             
                                                            
                                                   

.                 ..................................NFO:....................................*******************************************************************************
                Nothing.Personal.2009.576p.DVDRip.AC3.X264-BARC0DE
*******************************************************************************

-------------------------------------------------------------------------------
                              General Information
-------------------------------------------------------------------------------
Type.................: Movie
Name.................: Nothing Personal
Movie Information....: http://www.imdb.com/title/tt1320352/
Genre................: Drama
-------------------------------------------------------------------------------
                                    PLOT
-------------------------------------------------------------------------------
Alone in her empty flat, from her window Anne observes the people passing by who 
nervously snatch up the personal belongings and pieces of furniture she has put 
out on the pavement. Her final gesture of taking a ring off her finger signals 
she is leaving her previous life in Holland behind. She goes to Ireland, where 
she chooses to lead a solitary, wandering existence, striding through the austere 
landscapes of Connemara. During her travels, she discovers a house that is home 
to a hermit, Martin.

-------------------------------------------------------------------------------
                                    CAST
-------------------------------------------------------------------------------
Stephen Rea	... 	Martin
Lotte Verbeek	... 	Anne
Tom Charlfa		
Fintan Halpenny		
Ann Marie Horan		
Sean McRonnel		
Wimie Wilhelm	... 	Dutch landlady

-------------------------------------------------------------------------------
                                    MEDiA iNFO
-------------------------------------------------------------------------------

General
Complete name                    : Nothing.Personal.2009.576p.DVDRip.AC3.X264-BARC0DE.mkv
Format                           : Matroska
File size                        : 1.44 GiB
Duration                         : 1h 21mn
Overall bit rate                 : 2 530 Kbps

Video
ID                               : 1
Format                           : AVC
Format/Info                      : Advanced Video Codec
Format profile                   : Main@L3.0
Format settings, CABAC           : No
Format settings, ReFrames        : 2 frames
Muxing mode                      : Container profile=Unknown@3.0
Codec ID                         : V_MPEG4/ISO/AVC
Duration                         : 1h 21mn
Bit rate                         : 2 112 Kbps
Width                            : 720 pixels
Height                           : 576 pixels
Display aspect ratio             : 16:9
Frame rate                       : 25.000 fps
Standard                         : PAL
Color space                      : YUV
Chroma subsampling               : 4:2:0
Bit depth                        : 8 bits
Scan type                        : Progressive
Bits/(Pixel*Frame)               : 0.204
Stream size                      : 1.16 GiB (80%)
Writing library                  : x264 core 79

Audio
ID                               : 2
Format                           : AC-3
Format/Info                      : Audio Coding 3
Mode extension                   : CM (complete main)
Codec ID                         : A_AC3
Duration                         : 1h 21mn
Bit rate mode                    : Constant
Bit rate                         : 448 Kbps
Channel(s)                       : 6 channels
Channel positions                : Front: L C R, Side: L R, LFE
Sampling rate                    : 48.0 KHz
Stream size                      : 261 MiB (18%)
Language                         : English